ISO-10303-21;
HEADER;
FILE_DESCRIPTION (( 'STEP AP214' ),
    '1' );
FILE_NAME ('26650 Li-ion.STEP',
    '2022-11-03T15:38:16',
    ( '' ),
    ( '' ),
    'SwSTEP 2.0',
    'SolidWorks 2021',
    '' );
FILE_SCHEMA (( 'AUTOMOTIVE_DESIGN' ));
ENDSEC;

DATA;
#1 = CARTESIAN_POINT ( 'NONE',  ( 1.255262969126037241E-15, 0.000000000000000000, 10.25000000000000000 ) ) ;
#2 = DIRECTION ( 'NONE',  ( -0.000000000000000000, -1.000000000000000000, -0.000000000000000000 ) ) ;
#3 = VECTOR ( 'NONE', #2, 1000.000000000000000 ) ;
#4 = DIRECTION ( 'NONE',  ( 1.224646799147353454E-16, 0.000000000000000000, -1.000000000000000000 ) ) ;
#5 = SHAPE_DEFINITION_REPRESENTATION ( #392, #263 ) ;
#6 = EDGE_CURVE ( 'NONE', #31, #412, #95, .T. ) ;
#7 = CIRCLE ( 'NONE', #67, 12.59999999999999609 ) ;
#8 = AXIS2_PLACEMENT_3D ( 'NONE', #394, #71, #211 ) ;
#9 = AXIS2_PLACEMENT_3D ( 'NONE', #179, #183, #4 ) ;
#10 = EDGE_LOOP ( 'NONE', ( #457, #375, #235, #190 ) ) ;
#11 = COLOUR_RGB ( '',1.000000000000000000, 0.5490196078431373028, 0.000000000000000000 ) ;
#12 = DIRECTION ( 'NONE',  ( 0.000000000000000000, -1.000000000000000000, 0.000000000000000000 ) ) ;
#13 = ADVANCED_FACE ( 'NONE', ( #419 ), #133, .T. ) ;
#14 = DIRECTION ( 'NONE',  ( 0.000000000000000000, 0.000000000000000000, -1.000000000000000000 ) ) ;
#15 = ORIENTED_EDGE ( 'NONE', *, *, #438, .T. ) ;
#16 = SURFACE_STYLE_USAGE ( .BOTH. , #339 ) ;
#17 =( GEOMETRIC_REPRESENTATION_CONTEXT ( 3 ) GLOBAL_UNCERTAINTY_ASSIGNED_CONTEXT ( ( #426 ) ) GLOBAL_UNIT_ASSIGNED_CONTEXT ( ( #105, #70, #107 ) ) REPRESENTATION_CONTEXT ( 'NONE', 'WORKASPACE' ) );
#18 = EDGE_LOOP ( 'NONE', ( #329, #116, #238, #386 ) ) ;
#19 = AXIS2_PLACEMENT_3D ( 'NONE', #53, #255, #14 ) ;
#20 = STYLED_ITEM ( 'NONE', ( #72 ), #450 ) ;
#21 = EDGE_CURVE ( 'NONE', #383, #199, #337, .T. ) ;
#22 = PRESENTATION_STYLE_ASSIGNMENT (( #231 ) ) ;
#23 = ORIENTED_EDGE ( 'NONE', *, *, #48, .T. ) ;
#24 = SURFACE_STYLE_FILL_AREA ( #267 ) ;
#25 =( NAMED_UNIT ( * ) PLANE_ANGLE_UNIT ( ) SI_UNIT ( $, .RADIAN. ) );
#26 = FACE_OUTER_BOUND ( 'NONE', #163, .T. ) ;
#27 = ORIENTED_EDGE ( 'NONE', *, *, #180, .T. ) ;
#28 = ORIENTED_EDGE ( 'NONE', *, *, #131, .F. ) ;
#29 = ADVANCED_FACE ( 'NONE', ( #281, #434 ), #108, .T. ) ;
#30 = SURFACE_SIDE_STYLE ('',( #348 ) ) ;
#31 = VERTEX_POINT ( 'NONE', #38 ) ;
#32 = UNCERTAINTY_MEASURE_WITH_UNIT (LENGTH_MEASURE( 1.000000000000000082E-05 ), #114, 'distance_accuracy_value', 'NONE');
#33 =( NAMED_UNIT ( * ) SI_UNIT ( $, .STERADIAN. ) SOLID_ANGLE_UNIT ( ) );
#34 = CARTESIAN_POINT ( 'NONE',  ( 0.000000000000000000, 66.09999999999999432, -13.09999999999999787 ) ) ;
#35 = TOROIDAL_SURFACE ( 'NONE', #326, 12.59999999999999609, 0.5000000000000000000 ) ;
#36 = EDGE_CURVE ( 'NONE', #459, #195, #177, .T. ) ;
#37 = CARTESIAN_POINT ( 'NONE',  ( 0.000000000000000000, 0.000000000000000000, 0.000000000000000000 ) ) ;
#38 = CARTESIAN_POINT ( 'NONE',  ( 0.000000000000000000, 65.09999999999999432, 8.000000000000000000 ) ) ;
#39 = DIRECTION ( 'NONE',  ( 0.000000000000000000, 1.000000000000000000, 0.000000000000000000 ) ) ;
#40 = DIRECTION ( 'NONE',  ( 0.000000000000000000, -1.000000000000000000, 0.000000000000000000 ) ) ;
#41 = AXIS2_PLACEMENT_3D ( 'NONE', #59, #129, #307 ) ;
#42 = DIRECTION ( 'NONE',  ( 0.000000000000000000, 0.000000000000000000, 1.000000000000000000 ) ) ;
#43 = DIRECTION ( 'NONE',  ( 0.000000000000000000, 0.000000000000000000, -1.000000000000000000 ) ) ;
#44 = ORIENTED_EDGE ( 'NONE', *, *, #158, .F. ) ;
#45 = DIRECTION ( 'NONE',  ( -0.000000000000000000, -1.000000000000000000, -0.000000000000000000 ) ) ;
#46 = EDGE_LOOP ( 'NONE', ( #28, #303, #336, #170 ) ) ;
#47 = SURFACE_STYLE_USAGE ( .BOTH. , #295 ) ;
#48 = EDGE_CURVE ( 'NONE', #459, #340, #389, .T. ) ;
#49 = VERTEX_POINT ( 'NONE', #206 ) ;
#50 = CIRCLE ( 'NONE', #304, 0.5000000000000004441 ) ;
#51 = CARTESIAN_POINT ( 'NONE',  ( 0.000000000000000000, 0.000000000000000000, 0.000000000000000000 ) ) ;
#52 = ORIENTED_EDGE ( 'NONE', *, *, #61, .T. ) ;
#53 = CARTESIAN_POINT ( 'NONE',  ( 0.000000000000000000, 0.1000000000000000056, 0.000000000000000000 ) ) ;
#54 = ORIENTED_EDGE ( 'NONE', *, *, #342, .F. ) ;
#55 = CARTESIAN_POINT ( 'NONE',  ( 0.000000000000000000, 65.09999999999999432, 0.000000000000000000 ) ) ;
#56 = PRESENTATION_STYLE_ASSIGNMENT (( #229 ) ) ;
#57 = PRODUCT_DEFINITION_FORMATION_WITH_SPECIFIED_SOURCE ( 'ANY', '', #428, .NOT_KNOWN. ) ;
#58 = DIRECTION ( 'NONE',  ( -0.000000000000000000, -1.000000000000000000, -0.000000000000000000 ) ) ;
#59 = CARTESIAN_POINT ( 'NONE',  ( 0.000000000000000000, 65.09999999999999432, 0.000000000000000000 ) ) ;
#60 = FACE_OUTER_BOUND ( 'NONE', #65, .T. ) ;
#61 = EDGE_CURVE ( 'NONE', #324, #154, #7, .T. ) ;
#62 = ORIENTED_EDGE ( 'NONE', *, *, #413, .T. ) ;
#63 = AXIS2_PLACEMENT_3D ( 'NONE', #390, #353, #280 ) ;
#64 = DIRECTION ( 'NONE',  ( 0.000000000000000000, -0.000000000000000000, 1.000000000000000000 ) ) ;
#65 = EDGE_LOOP ( 'NONE', ( #446, #310, #370, #54 ) ) ;
#66 = DIRECTION ( 'NONE',  ( 0.000000000000000000, 0.000000000000000000, -1.000000000000000000 ) ) ;
#67 = AXIS2_PLACEMENT_3D ( 'NONE', #182, #354, #66 ) ;
#68 = CARTESIAN_POINT ( 'NONE',  ( 0.000000000000000000, 65.09999999999999432, 0.000000000000000000 ) ) ;
#69 = CIRCLE ( 'NONE', #435, 13.09999999999999787 ) ;
#70 =( NAMED_UNIT ( * ) PLANE_ANGLE_UNIT ( ) SI_UNIT ( $, .RADIAN. ) );
#71 = DIRECTION ( 'NONE',  ( -0.000000000000000000, -1.000000000000000000, -0.000000000000000000 ) ) ;
#72 = PRESENTATION_STYLE_ASSIGNMENT (( #140 ) ) ;
#73 = DIRECTION ( 'NONE',  ( 0.000000000000000000, 0.000000000000000000, 1.000000000000000000 ) ) ;
#74 = CARTESIAN_POINT ( 'NONE',  ( 9.797174393178825657E-16, 66.09999999999999432, -8.000000000000000000 ) ) ;
#75 = EDGE_CURVE ( 'NONE', #126, #347, #225, .T. ) ;
#76 = PRODUCT_DEFINITION_CONTEXT ( 'detailed design', #313, 'design' ) ;
#77 = VECTOR ( 'NONE', #363, 1000.000000000000000 ) ;
#78 = CARTESIAN_POINT ( 'NONE',  ( 0.000000000000000000, 0.6000000000000033085, -12.59999999999999609 ) ) ;
#79 = ORIENTED_EDGE ( 'NONE', *, *, #21, .F. ) ;
#80 = AXIS2_PLACEMENT_3D ( 'NONE', #283, #213, #387 ) ;
#81 =( GEOMETRIC_REPRESENTATION_CONTEXT ( 3 ) GLOBAL_UNCERTAINTY_ASSIGNED_CONTEXT ( ( #175 ) ) GLOBAL_UNIT_ASSIGNED_CONTEXT ( ( #93, #25, #96 ) ) REPRESENTATION_CONTEXT ( 'NONE', 'WORKASPACE' ) );
#82 = DIRECTION ( 'NONE',  ( 1.000000000000000000, 0.000000000000000000, 0.000000000000000000 ) ) ;
#83 = FILL_AREA_STYLE ('',( #219 ) ) ;
#84 = DIRECTION ( 'NONE',  ( 0.000000000000000000, 1.000000000000000000, 0.000000000000000000 ) ) ;
#85 = AXIS2_PLACEMENT_3D ( 'NONE', #68, #322, #359 ) ;
#86 = EDGE_LOOP ( 'NONE', ( #332, #62 ) ) ;
#87 = AXIS2_PLACEMENT_3D ( 'NONE', #273, #58, #449 ) ;
#88 = EDGE_LOOP ( 'NONE', ( #265, #269 ) ) ;
#89 = FILL_AREA_STYLE_COLOUR ( '', #152 ) ;
#90 = FILL_AREA_STYLE_COLOUR ( '', #455 ) ;
#91 = EDGE_CURVE ( 'NONE', #365, #185, #232, .T. ) ;
#92 = PRESENTATION_STYLE_ASSIGNMENT (( #16 ) ) ;
#93 =( LENGTH_UNIT ( ) NAMED_UNIT ( * ) SI_UNIT ( .MILLI., .METRE. ) );
#94 = AXIS2_PLACEMENT_3D ( 'NONE', #404, #12, #258 ) ;
#95 = CIRCLE ( 'NONE', #373, 8.000000000000000000 ) ;
#96 =( NAMED_UNIT ( * ) SI_UNIT ( $, .STERADIAN. ) SOLID_ANGLE_UNIT ( ) );
#97 = ORIENTED_EDGE ( 'NONE', *, *, #423, .T. ) ;
#98 = SURFACE_SIDE_STYLE ('',( #302 ) ) ;
#99 = MECHANICAL_DESIGN_GEOMETRIC_PRESENTATION_REPRESENTATION (  '', ( #115 ), #240 ) ;
#100 = AXIS2_PLACEMENT_3D ( 'NONE', #78, #188, #439 ) ;
#101 = DIRECTION ( 'NONE',  ( 0.000000000000000000, -0.000000000000000000, 1.000000000000000000 ) ) ;
#102 = STYLED_ITEM ( 'NONE', ( #56 ), #13 ) ;
#103 = CARTESIAN_POINT ( 'NONE',  ( 0.000000000000000000, 66.09999999999999432, 0.000000000000000000 ) ) ;
#104 = DIRECTION ( 'NONE',  ( 0.000000000000000000, 0.000000000000000000, -1.000000000000000000 ) ) ;
#105 =( LENGTH_UNIT ( ) NAMED_UNIT ( * ) SI_UNIT ( .MILLI., .METRE. ) );
#106 = CARTESIAN_POINT ( 'NONE',  ( 0.000000000000000000, 65.09999999999999432, 0.000000000000000000 ) ) ;
#107 =( NAMED_UNIT ( * ) SI_UNIT ( $, .STERADIAN. ) SOLID_ANGLE_UNIT ( ) );
#108 = PLANE ( 'NONE',  #196 ) ;
#109 = SURFACE_STYLE_FILL_AREA ( #393 ) ;
#110 = EDGE_CURVE ( 'NONE', #340, #459, #161, .T. ) ;
#111 = CARTESIAN_POINT ( 'NONE',  ( 0.000000000000000000, 0.1000000000000000056, 0.000000000000000000 ) ) ;
#112 = CARTESIAN_POINT ( 'NONE',  ( 1.604287306883032452E-15, 66.09999999999999432, 13.09999999999999787 ) ) ;
#113 = AXIS2_PLACEMENT_3D ( 'NONE', #299, #270, #64 ) ;
#114 =( LENGTH_UNIT ( ) NAMED_UNIT ( * ) SI_UNIT ( .MILLI., .METRE. ) );
#115 = STYLED_ITEM ( 'NONE', ( #458 ), #263 ) ;
#116 = ORIENTED_EDGE ( 'NONE', *, *, #125, .T. ) ;
#117 = EDGE_CURVE ( 'NONE', #347, #199, #352, .T. ) ;
#118 = AXIS2_PLACEMENT_3D ( 'NONE', #464, #143, #430 ) ;
#119 = FACE_OUTER_BOUND ( 'NONE', #410, .T. ) ;
#120 = ORIENTED_EDGE ( 'NONE', *, *, #423, .F. ) ;
#121 = PRODUCT_CONTEXT ( 'NONE', #445, 'mechanical' ) ;
#122 = CARTESIAN_POINT ( 'NONE',  ( 0.000000000000000000, 64.59999999999999432, -13.09999999999999787 ) ) ;
#123 = STYLED_ITEM ( 'NONE', ( #408 ), #201 ) ;
#124 = CARTESIAN_POINT ( 'NONE',  ( 0.000000000000000000, 0.1000000000000000056, 0.000000000000000000 ) ) ;
#125 = EDGE_CURVE ( 'NONE', #412, #31, #338, .T. ) ;
#126 = VERTEX_POINT ( 'NONE', #209 ) ;
#127 = SURFACE_SIDE_STYLE ('',( #379 ) ) ;
#128 = CIRCLE ( 'NONE', #8, 13.09999999999999787 ) ;
#129 = DIRECTION ( 'NONE',  ( -0.000000000000000000, 1.000000000000000000, -0.000000000000000000 ) ) ;
#130 = ORIENTED_EDGE ( 'NONE', *, *, #305, .T. ) ;
#131 = EDGE_CURVE ( 'NONE', #347, #49, #207, .T. ) ;
#132 =( NAMED_UNIT ( * ) SI_UNIT ( $, .STERADIAN. ) SOLID_ANGLE_UNIT ( ) );
#133 = CYLINDRICAL_SURFACE ( 'NONE', #306, 8.000000000000000000 ) ;
#134 = CYLINDRICAL_SURFACE ( 'NONE', #87, 13.09999999999999787 ) ;
#135 = ORIENTED_EDGE ( 'NONE', *, *, #173, .F. ) ;
#136 = CARTESIAN_POINT ( 'NONE',  ( 1.255262969126037241E-15, 0.1000000000000000056, 10.25000000000000000 ) ) ;
#137 = CARTESIAN_POINT ( 'NONE',  ( 0.000000000000000000, 65.09999999999999432, 0.000000000000000000 ) ) ;
#138 = VECTOR ( 'NONE', #301, 1000.000000000000000 ) ;
#139 = AXIS2_PLACEMENT_3D ( 'NONE', #215, #444, #82 ) ;
#140 = SURFACE_STYLE_USAGE ( .BOTH. , #463 ) ;
#141 = DIRECTION ( 'NONE',  ( -0.000000000000000000, 1.000000000000000000, -0.000000000000000000 ) ) ;
#142 = AXIS2_PLACEMENT_3D ( 'NONE', #106, #391, #246 ) ;
#143 = DIRECTION ( 'NONE',  ( 0.000000000000000000, -1.000000000000000000, 0.000000000000000000 ) ) ;
#144 = DIRECTION ( 'NONE',  ( -0.000000000000000000, -1.000000000000000000, -0.000000000000000000 ) ) ;
#145 = AXIS2_PLACEMENT_3D ( 'NONE', #55, #194, #243 ) ;
#146 = DIRECTION ( 'NONE',  ( 0.000000000000000000, -0.000000000000000000, 1.000000000000000000 ) ) ;
#147 = LINE ( 'NONE', #285, #433 ) ;
#148 =( NAMED_UNIT ( * ) PLANE_ANGLE_UNIT ( ) SI_UNIT ( $, .RADIAN. ) );
#149 = CARTESIAN_POINT ( 'NONE',  ( 0.000000000000000000, 66.09999999999999432, 0.000000000000000000 ) ) ;
#150 =( LENGTH_UNIT ( ) NAMED_UNIT ( * ) SI_UNIT ( .MILLI., .METRE. ) );
#151 = UNCERTAINTY_MEASURE_WITH_UNIT (LENGTH_MEASURE( 1.000000000000000082E-05 ), #351, 'distance_accuracy_value', 'NONE');
#152 = COLOUR_RGB ( '',0.6470588235294117974, 0.6196078431372549211, 0.5882352941176470784 ) ;
#153 = CYLINDRICAL_SURFACE ( 'NONE', #276, 13.09999999999999787 ) ;
#154 = VERTEX_POINT ( 'NONE', #316 ) ;
#155 = DIRECTION ( 'NONE',  ( -1.000000000000000000, 0.000000000000000000, 0.000000000000000000 ) ) ;
#156 = ORIENTED_EDGE ( 'NONE', *, *, #245, .T. ) ;
#157 = EDGE_LOOP ( 'NONE', ( #401, #262 ) ) ;
#158 = EDGE_CURVE ( 'NONE', #347, #126, #128, .T. ) ;
#159 = MECHANICAL_DESIGN_GEOMETRIC_PRESENTATION_REPRESENTATION (  '', ( #20 ), #253 ) ;
#160 =( GEOMETRIC_REPRESENTATION_CONTEXT ( 3 ) GLOBAL_UNCERTAINTY_ASSIGNED_CONTEXT ( ( #32 ) ) GLOBAL_UNIT_ASSIGNED_CONTEXT ( ( #114, #288, #400 ) ) REPRESENTATION_CONTEXT ( 'NONE', 'WORKASPACE' ) );
#161 = CIRCLE ( 'NONE', #118, 10.25000000000000000 ) ;
#162 = VERTEX_POINT ( 'NONE', #1 ) ;
#163 = EDGE_LOOP ( 'NONE', ( #259, #27, #418, #271 ) ) ;
#164 = CYLINDRICAL_SURFACE ( 'NONE', #41, 8.000000000000000000 ) ;
#165 = EDGE_CURVE ( 'NONE', #195, #162, #317, .T. ) ;
#166 =( LENGTH_UNIT ( ) NAMED_UNIT ( * ) SI_UNIT ( .MILLI., .METRE. ) );
#167 = FILL_AREA_STYLE ('',( #90 ) ) ;
#168 = AXIS2_PLACEMENT_3D ( 'NONE', #372, #84, #287 ) ;
#169 = CARTESIAN_POINT ( 'NONE',  ( 0.000000000000000000, 65.09999999999999432, 8.000000000000000000 ) ) ;
#170 = ORIENTED_EDGE ( 'NONE', *, *, #413, .F. ) ;
#171 = CARTESIAN_POINT ( 'NONE',  ( 0.000000000000000000, 64.59999999999999432, 0.000000000000000000 ) ) ;
#172 = ORIENTED_EDGE ( 'NONE', *, *, #75, .T. ) ;
#173 = EDGE_CURVE ( 'NONE', #407, #49, #345, .T. ) ;
#174 = CARTESIAN_POINT ( 'NONE',  ( 0.000000000000000000, 0.6000000000000033085, -13.09999999999999787 ) ) ;
#175 = UNCERTAINTY_MEASURE_WITH_UNIT (LENGTH_MEASURE( 1.000000000000000082E-05 ), #93, 'distance_accuracy_value', 'NONE');
#176 = CARTESIAN_POINT ( 'NONE',  ( 0.000000000000000000, 0.1000000000000000056, -10.25000000000000000 ) ) ;
#177 = LINE ( 'NONE', #396, #256 ) ;
#178 = APPLICATION_PROTOCOL_DEFINITION ( 'draft international standard', 'automotive_design', 1998, #445 ) ;
#179 = CARTESIAN_POINT ( 'NONE',  ( 1.543054966925664681E-15, 64.59999999999999432, -12.59999999999999609 ) ) ;
#180 = EDGE_CURVE ( 'NONE', #412, #185, #147, .T. ) ;
#181 =( NAMED_UNIT ( * ) PLANE_ANGLE_UNIT ( ) SI_UNIT ( $, .RADIAN. ) );
#182 = CARTESIAN_POINT ( 'NONE',  ( 0.000000000000000000, 0.1000000000000000472, 0.000000000000000000 ) ) ;
#183 = DIRECTION ( 'NONE',  ( 1.000000000000000000, -0.000000000000000000, 1.224646799147353207E-16 ) ) ;
#184 = CARTESIAN_POINT ( 'NONE',  ( 1.255262969126037241E-15, 0.1000000000000000056, 10.25000000000000000 ) ) ;
#185 = VERTEX_POINT ( 'NONE', #74 ) ;
#186 = DIRECTION ( 'NONE',  ( 0.000000000000000000, 0.000000000000000000, 1.000000000000000000 ) ) ;
#187 = ORIENTED_EDGE ( 'NONE', *, *, #279, .F. ) ;
#188 = DIRECTION ( 'NONE',  ( -1.000000000000000000, -0.000000000000000000, -0.000000000000000000 ) ) ;
#189 = DIRECTION ( 'NONE',  ( 0.000000000000000000, 0.000000000000000000, -1.000000000000000000 ) ) ;
#190 = ORIENTED_EDGE ( 'NONE', *, *, #117, .F. ) ;
#191 = ADVANCED_FACE ( 'NONE', ( #250, #398 ), #361, .T. ) ;
#192 = CARTESIAN_POINT ( 'NONE',  ( 0.000000000000000000, 64.59999999999999432, 0.000000000000000000 ) ) ;
#193 = EDGE_LOOP ( 'NONE', ( #120, #289, #405, #292 ) ) ;
#194 = DIRECTION ( 'NONE',  ( 0.000000000000000000, 1.000000000000000000, 0.000000000000000000 ) ) ;
#195 = VERTEX_POINT ( 'NONE', #242 ) ;
#196 = AXIS2_PLACEMENT_3D ( 'NONE', #248, #318, #278 ) ;
#197 = DIRECTION ( 'NONE',  ( 0.000000000000000000, 0.000000000000000000, 1.000000000000000000 ) ) ;
#198 = PLANE ( 'NONE',  #113 ) ;
#199 = VERTEX_POINT ( 'NONE', #174 ) ;
#200 =( NAMED_UNIT ( * ) PLANE_ANGLE_UNIT ( ) SI_UNIT ( $, .RADIAN. ) );
#201 = MANIFOLD_SOLID_BREP ( 'Скругление1', #241 ) ;
#202 = EDGE_LOOP ( 'NONE', ( #294, #52 ) ) ;
#203 = MECHANICAL_DESIGN_GEOMETRIC_PRESENTATION_REPRESENTATION (  '', ( #123 ), #160 ) ;
#204 = LINE ( 'NONE', #136, #3 ) ;
#205 = CARTESIAN_POINT ( 'NONE',  ( 0.000000000000000000, 65.09999999999999432, 0.000000000000000000 ) ) ;
#206 = CARTESIAN_POINT ( 'NONE',  ( 1.573671136904348665E-15, 65.09999999999999432, -12.59999999999999609 ) ) ;
#207 = CIRCLE ( 'NONE', #9, 0.5000000000000004441 ) ;
#208 = DIRECTION ( 'NONE',  ( 0.000000000000000000, 1.000000000000000000, 0.000000000000000000 ) ) ;
#209 = CARTESIAN_POINT ( 'NONE',  ( 1.604287306883032452E-15, 64.59999999999999432, 13.09999999999999787 ) ) ;
#210 =( GEOMETRIC_REPRESENTATION_CONTEXT ( 3 ) GLOBAL_UNCERTAINTY_ASSIGNED_CONTEXT ( ( #214 ) ) GLOBAL_UNIT_ASSIGNED_CONTEXT ( ( #385, #236, #132 ) ) REPRESENTATION_CONTEXT ( 'NONE', 'WORKASPACE' ) );
#211 = DIRECTION ( 'NONE',  ( 0.000000000000000000, 0.000000000000000000, 1.000000000000000000 ) ) ;
#212 = DIRECTION ( 'NONE',  ( 1.000000000000000000, 0.000000000000000000, -1.224646799147353207E-16 ) ) ;
#213 = DIRECTION ( 'NONE',  ( -0.000000000000000000, 1.000000000000000000, -0.000000000000000000 ) ) ;
#214 = UNCERTAINTY_MEASURE_WITH_UNIT (LENGTH_MEASURE( 1.000000000000000082E-05 ), #385, 'distance_accuracy_value', 'NONE');
#215 = CARTESIAN_POINT ( 'NONE',  ( 0.000000000000000000, 0.000000000000000000, 0.000000000000000000 ) ) ;
#216 = DIRECTION ( 'NONE',  ( 0.000000000000000000, 1.000000000000000000, 0.000000000000000000 ) ) ;
#217 = AXIS2_PLACEMENT_3D ( 'NONE', #224, #155, #441 ) ;
#218 = EDGE_LOOP ( 'NONE', ( #44, #300, #135, #415 ) ) ;
#219 = FILL_AREA_STYLE_COLOUR ( '', #11 ) ;
#220 = ORIENTED_EDGE ( 'NONE', *, *, #117, .T. ) ;
#221 = FACE_OUTER_BOUND ( 'NONE', #218, .T. ) ;
#222 = ORIENTED_EDGE ( 'NONE', *, *, #165, .F. ) ;
#223 = PRESENTATION_LAYER_ASSIGNMENT (  '', '', ( #402 ) ) ;
#224 = CARTESIAN_POINT ( 'NONE',  ( 0.000000000000000000, 64.59999999999999432, 12.59999999999999609 ) ) ;
#225 = CIRCLE ( 'NONE', #424, 13.09999999999999787 ) ;
#226 = DIRECTION ( 'NONE',  ( 0.000000000000000000, 0.000000000000000000, -1.000000000000000000 ) ) ;
#227 = ORIENTED_EDGE ( 'NONE', *, *, #272, .F. ) ;
#228 = DIRECTION ( 'NONE',  ( 0.000000000000000000, 0.000000000000000000, -1.000000000000000000 ) ) ;
#229 = SURFACE_STYLE_USAGE ( .BOTH. , #98 ) ;
#230 = ADVANCED_FACE ( 'NONE', ( #261 ), #153, .T. ) ;
#231 = SURFACE_STYLE_USAGE ( .BOTH. , #127 ) ;
#232 = CIRCLE ( 'NONE', #298, 8.000000000000000000 ) ;
#233 = EDGE_LOOP ( 'NONE', ( #377, #454 ) ) ;
#234 =( NAMED_UNIT ( * ) SI_UNIT ( $, .STERADIAN. ) SOLID_ANGLE_UNIT ( ) );
#235 = ORIENTED_EDGE ( 'NONE', *, *, #21, .T. ) ;
#236 =( NAMED_UNIT ( * ) PLANE_ANGLE_UNIT ( ) SI_UNIT ( $, .RADIAN. ) );
#237 = ADVANCED_FACE ( 'NONE', ( #221 ), #35, .T. ) ;
#238 = ORIENTED_EDGE ( 'NONE', *, *, #366, .T. ) ;
#239 = AXIS2_PLACEMENT_3D ( 'NONE', #442, #291, #189 ) ;
#240 =( GEOMETRIC_REPRESENTATION_CONTEXT ( 3 ) GLOBAL_UNCERTAINTY_ASSIGNED_CONTEXT ( ( #358 ) ) GLOBAL_UNIT_ASSIGNED_CONTEXT ( ( #150, #148, #367 ) ) REPRESENTATION_CONTEXT ( 'NONE', 'WORKASPACE' ) );
#241 = CLOSED_SHELL ( 'NONE', ( #252, #237, #360, #380, #230, #388, #191, #13, #450, #29, #409, #395, #431, #286 ) ) ;
#242 = CARTESIAN_POINT ( 'NONE',  ( 0.000000000000000000, 0.000000000000000000, -10.25000000000000000 ) ) ;
#243 = DIRECTION ( 'NONE',  ( 0.000000000000000000, 0.000000000000000000, 1.000000000000000000 ) ) ;
#244 = DIRECTION ( 'NONE',  ( -0.000000000000000000, -1.000000000000000000, -0.000000000000000000 ) ) ;
#245 = EDGE_CURVE ( 'NONE', #185, #365, #319, .T. ) ;
#246 = DIRECTION ( 'NONE',  ( 0.000000000000000000, 0.000000000000000000, 1.000000000000000000 ) ) ;
#247 = CIRCLE ( 'NONE', #145, 12.59999999999999609 ) ;
#248 = CARTESIAN_POINT ( 'NONE',  ( 0.000000000000000000, 0.1000000000000000056, 0.000000000000000000 ) ) ;
#249 = FILL_AREA_STYLE_COLOUR ( '', #420 ) ;
#250 = FACE_OUTER_BOUND ( 'NONE', #86, .T. ) ;
#251 = SURFACE_STYLE_FILL_AREA ( #83 ) ;
#252 = ADVANCED_FACE ( 'NONE', ( #325 ), #362, .T. ) ;
#253 =( GEOMETRIC_REPRESENTATION_CONTEXT ( 3 ) GLOBAL_UNCERTAINTY_ASSIGNED_CONTEXT ( ( #151 ) ) GLOBAL_UNIT_ASSIGNED_CONTEXT ( ( #351, #181, #33 ) ) REPRESENTATION_CONTEXT ( 'NONE', 'WORKASPACE' ) );
#254 = STYLED_ITEM ( 'NONE', ( #22 ), #395 ) ;
#255 = DIRECTION ( 'NONE',  ( -0.000000000000000000, -1.000000000000000000, -0.000000000000000000 ) ) ;
#256 = VECTOR ( 'NONE', #144, 1000.000000000000000 ) ;
#257 = CYLINDRICAL_SURFACE ( 'NONE', #19, 10.25000000000000000 ) ;
#258 = DIRECTION ( 'NONE',  ( 0.000000000000000000, 0.000000000000000000, -1.000000000000000000 ) ) ;
#259 = ORIENTED_EDGE ( 'NONE', *, *, #6, .T. ) ;
#260 = CIRCLE ( 'NONE', #63, 12.59999999999999609 ) ;
#261 = FACE_OUTER_BOUND ( 'NONE', #10, .T. ) ;
#262 = ORIENTED_EDGE ( 'NONE', *, *, #125, .F. ) ;
#263 = ADVANCED_BREP_SHAPE_REPRESENTATION ( '26650 Li-ion', ( #201, #139 ), #17 ) ;
#264 = PRODUCT_RELATED_PRODUCT_CATEGORY ( 'part', '', ( #428 ) ) ;
#265 = ORIENTED_EDGE ( 'NONE', *, *, #48, .F. ) ;
#266 = EDGE_LOOP ( 'NONE', ( #187, #172, #220, #130 ) ) ;
#267 = FILL_AREA_STYLE ('',( #381 ) ) ;
#268 = AXIS2_PLACEMENT_3D ( 'NONE', #137, #425, #101 ) ;
#269 = ORIENTED_EDGE ( 'NONE', *, *, #110, .F. ) ;
#270 = DIRECTION ( 'NONE',  ( 0.000000000000000000, 1.000000000000000000, 0.000000000000000000 ) ) ;
#271 = ORIENTED_EDGE ( 'NONE', *, *, #366, .F. ) ;
#272 = EDGE_CURVE ( 'NONE', #199, #154, #421, .T. ) ;
#273 = CARTESIAN_POINT ( 'NONE',  ( 0.000000000000000000, 66.09999999999999432, 0.000000000000000000 ) ) ;
#274 = LINE ( 'NONE', #112, #77 ) ;
#275 = DIRECTION ( 'NONE',  ( -0.000000000000000000, -1.000000000000000000, -0.000000000000000000 ) ) ;
#276 = AXIS2_PLACEMENT_3D ( 'NONE', #149, #45, #226 ) ;
#277 = CARTESIAN_POINT ( 'NONE',  ( 1.543054966925664681E-15, 0.6000000000000033085, 12.59999999999999609 ) ) ;
#278 = DIRECTION ( 'NONE',  ( 0.000000000000000000, -0.000000000000000000, -1.000000000000000000 ) ) ;
#279 = EDGE_CURVE ( 'NONE', #126, #383, #274, .T. ) ;
#280 = DIRECTION ( 'NONE',  ( 0.000000000000000000, 0.000000000000000000, -1.000000000000000000 ) ) ;
#281 = FACE_OUTER_BOUND ( 'NONE', #202, .T. ) ;
#282 = DIRECTION ( 'NONE',  ( -1.224646799147353454E-16, 0.000000000000000000, -1.000000000000000000 ) ) ;
#283 = CARTESIAN_POINT ( 'NONE',  ( 0.000000000000000000, 0.6000000000000033085, 0.000000000000000000 ) ) ;
#284 = AXIS2_PLACEMENT_3D ( 'NONE', #171, #208, #432 ) ;
#285 = CARTESIAN_POINT ( 'NONE',  ( 9.797174393178825657E-16, 65.09999999999999432, -8.000000000000000000 ) ) ;
#286 = ADVANCED_FACE ( 'NONE', ( #328 ), #447, .T. ) ;
#287 = DIRECTION ( 'NONE',  ( 0.000000000000000000, 0.000000000000000000, 1.000000000000000000 ) ) ;
#288 =( NAMED_UNIT ( * ) PLANE_ANGLE_UNIT ( ) SI_UNIT ( $, .RADIAN. ) );
#289 = ORIENTED_EDGE ( 'NONE', *, *, #305, .F. ) ;
#290 = COLOUR_RGB ( '',0.6470588235294117974, 0.6196078431372549211, 0.5882352941176470784 ) ;
#291 = DIRECTION ( 'NONE',  ( 0.000000000000000000, -1.000000000000000000, 0.000000000000000000 ) ) ;
#292 = ORIENTED_EDGE ( 'NONE', *, *, #61, .F. ) ;
#293 = DIRECTION ( 'NONE',  ( 0.000000000000000000, 1.000000000000000000, 0.000000000000000000 ) ) ;
#294 = ORIENTED_EDGE ( 'NONE', *, *, #443, .T. ) ;
#295 = SURFACE_SIDE_STYLE ('',( #251 ) ) ;
#296 = PRESENTATION_LAYER_ASSIGNMENT (  '', '', ( #20 ) ) ;
#297 = PRESENTATION_LAYER_ASSIGNMENT (  '', '', ( #123 ) ) ;
#298 = AXIS2_PLACEMENT_3D ( 'NONE', #314, #216, #73 ) ;
#299 = CARTESIAN_POINT ( 'NONE',  ( 0.000000000000000000, 0.000000000000000000, 0.000000000000000000 ) ) ;
#300 = ORIENTED_EDGE ( 'NONE', *, *, #131, .T. ) ;
#301 = DIRECTION ( 'NONE',  ( -0.000000000000000000, 1.000000000000000000, -0.000000000000000000 ) ) ;
#302 = SURFACE_STYLE_FILL_AREA ( #167 ) ;
#303 = ORIENTED_EDGE ( 'NONE', *, *, #75, .F. ) ;
#304 = AXIS2_PLACEMENT_3D ( 'NONE', #277, #212, #282 ) ;
#305 = EDGE_CURVE ( 'NONE', #199, #383, #69, .T. ) ;
#306 = AXIS2_PLACEMENT_3D ( 'NONE', #349, #141, #462 ) ;
#307 = DIRECTION ( 'NONE',  ( 0.000000000000000000, 0.000000000000000000, 1.000000000000000000 ) ) ;
#308 = DIRECTION ( 'NONE',  ( 0.000000000000000000, 1.000000000000000000, 0.000000000000000000 ) ) ;
#309 = SURFACE_STYLE_USAGE ( .BOTH. , #30 ) ;
#310 = ORIENTED_EDGE ( 'NONE', *, *, #110, .T. ) ;
#311 = FILL_AREA_STYLE_COLOUR ( '', #290 ) ;
#312 = CARTESIAN_POINT ( 'NONE',  ( 0.000000000000000000, 64.59999999999999432, 0.000000000000000000 ) ) ;
#313 = APPLICATION_CONTEXT ( 'automotive_design' ) ;
#314 = CARTESIAN_POINT ( 'NONE',  ( 0.000000000000000000, 66.09999999999999432, 0.000000000000000000 ) ) ;
#315 = FACE_OUTER_BOUND ( 'NONE', #451, .T. ) ;
#316 = CARTESIAN_POINT ( 'NONE',  ( 0.000000000000000000, 0.1000000000000000472, -12.59999999999999609 ) ) ;
#317 = CIRCLE ( 'NONE', #436, 10.25000000000000000 ) ;
#318 = DIRECTION ( 'NONE',  ( 0.000000000000000000, -1.000000000000000000, 0.000000000000000000 ) ) ;
#319 = CIRCLE ( 'NONE', #168, 8.000000000000000000 ) ;
#320 = EDGE_CURVE ( 'NONE', #126, #407, #344, .T. ) ;
#321 = UNCERTAINTY_MEASURE_WITH_UNIT (LENGTH_MEASURE( 1.000000000000000082E-05 ), #166, 'distance_accuracy_value', 'NONE');
#322 = DIRECTION ( 'NONE',  ( 0.000000000000000000, 1.000000000000000000, 0.000000000000000000 ) ) ;
#323 = DIRECTION ( 'NONE',  ( 0.000000000000000000, 0.000000000000000000, -1.000000000000000000 ) ) ;
#324 = VERTEX_POINT ( 'NONE', #406 ) ;
#325 = FACE_OUTER_BOUND ( 'NONE', #343, .T. ) ;
#326 = AXIS2_PLACEMENT_3D ( 'NONE', #192, #293, #186 ) ;
#327 = APPLICATION_PROTOCOL_DEFINITION ( 'draft international standard', 'automotive_design', 1998, #313 ) ;
#328 = FACE_OUTER_BOUND ( 'NONE', #193, .T. ) ;
#329 = ORIENTED_EDGE ( 'NONE', *, *, #180, .F. ) ;
#330 = DIRECTION ( 'NONE',  ( 0.000000000000000000, -1.000000000000000000, 0.000000000000000000 ) ) ;
#331 = ORIENTED_EDGE ( 'NONE', *, *, #443, .F. ) ;
#332 = ORIENTED_EDGE ( 'NONE', *, *, #173, .T. ) ;
#333 = CIRCLE ( 'NONE', #384, 10.25000000000000000 ) ;
#334 = PRESENTATION_LAYER_ASSIGNMENT (  '', '', ( #115 ) ) ;
#335 = FACE_OUTER_BOUND ( 'NONE', #266, .T. ) ;
#336 = ORIENTED_EDGE ( 'NONE', *, *, #320, .T. ) ;
#337 = CIRCLE ( 'NONE', #80, 13.09999999999999787 ) ;
#338 = CIRCLE ( 'NONE', #142, 8.000000000000000000 ) ;
#339 = SURFACE_SIDE_STYLE ('',( #24 ) ) ;
#340 = VERTEX_POINT ( 'NONE', #184 ) ;
#341 = FILL_AREA_STYLE ('',( #89 ) ) ;
#342 = EDGE_CURVE ( 'NONE', #162, #195, #333, .T. ) ;
#343 = EDGE_LOOP ( 'NONE', ( #79, #97, #331, #227 ) ) ;
#344 = CIRCLE ( 'NONE', #217, 0.5000000000000004441 ) ;
#345 = CIRCLE ( 'NONE', #85, 12.59999999999999609 ) ;
#346 = LINE ( 'NONE', #169, #138 ) ;
#347 = VERTEX_POINT ( 'NONE', #122 ) ;
#348 = SURFACE_STYLE_FILL_AREA ( #397 ) ;
#349 = CARTESIAN_POINT ( 'NONE',  ( 0.000000000000000000, 65.09999999999999432, 0.000000000000000000 ) ) ;
#350 = PRODUCT_DEFINITION ( 'UNKNOWN', '', #57, #76 ) ;
#351 =( LENGTH_UNIT ( ) NAMED_UNIT ( * ) SI_UNIT ( .MILLI., .METRE. ) );
#352 = LINE ( 'NONE', #34, #416 ) ;
#353 = DIRECTION ( 'NONE',  ( 0.000000000000000000, -1.000000000000000000, 0.000000000000000000 ) ) ;
#354 = DIRECTION ( 'NONE',  ( 0.000000000000000000, -1.000000000000000000, 0.000000000000000000 ) ) ;
#355 =( GEOMETRIC_REPRESENTATION_CONTEXT ( 3 ) GLOBAL_UNCERTAINTY_ASSIGNED_CONTEXT ( ( #321 ) ) GLOBAL_UNIT_ASSIGNED_CONTEXT ( ( #166, #200, #234 ) ) REPRESENTATION_CONTEXT ( 'NONE', 'WORKASPACE' ) );
#356 = MECHANICAL_DESIGN_GEOMETRIC_PRESENTATION_REPRESENTATION (  '', ( #102 ), #81 ) ;
#357 = DIRECTION ( 'NONE',  ( 0.000000000000000000, 0.000000000000000000, -1.000000000000000000 ) ) ;
#358 = UNCERTAINTY_MEASURE_WITH_UNIT (LENGTH_MEASURE( 1.000000000000000082E-05 ), #150, 'distance_accuracy_value', 'NONE');
#359 = DIRECTION ( 'NONE',  ( 0.000000000000000000, 0.000000000000000000, 1.000000000000000000 ) ) ;
#360 = ADVANCED_FACE ( 'NONE', ( #119 ), #257, .T. ) ;
#361 = PLANE ( 'NONE',  #268 ) ;
#362 = TOROIDAL_SURFACE ( 'NONE', #239, 12.59999999999999609, 0.5000000000000000000 ) ;
#363 = DIRECTION ( 'NONE',  ( -0.000000000000000000, -1.000000000000000000, -0.000000000000000000 ) ) ;
#364 = PRESENTATION_LAYER_ASSIGNMENT (  '', '', ( #102 ) ) ;
#365 = VERTEX_POINT ( 'NONE', #403 ) ;
#366 = EDGE_CURVE ( 'NONE', #31, #365, #346, .T. ) ;
#367 =( NAMED_UNIT ( * ) SI_UNIT ( $, .STERADIAN. ) SOLID_ANGLE_UNIT ( ) );
#368 = ORIENTED_EDGE ( 'NONE', *, *, #36, .F. ) ;
#369 = DIRECTION ( 'NONE',  ( -0.000000000000000000, 1.000000000000000000, -0.000000000000000000 ) ) ;
#370 = ORIENTED_EDGE ( 'NONE', *, *, #36, .T. ) ;
#371 = TOROIDAL_SURFACE ( 'NONE', #284, 12.59999999999999609, 0.5000000000000000000 ) ;
#372 = CARTESIAN_POINT ( 'NONE',  ( 0.000000000000000000, 66.09999999999999432, 0.000000000000000000 ) ) ;
#373 = AXIS2_PLACEMENT_3D ( 'NONE', #205, #308, #197 ) ;
#374 = CARTESIAN_POINT ( 'NONE',  ( 0.000000000000000000, 0.6000000000000033085, 0.000000000000000000 ) ) ;
#375 = ORIENTED_EDGE ( 'NONE', *, *, #279, .T. ) ;
#376 = CARTESIAN_POINT ( 'NONE',  ( 9.797174393178825657E-16, 65.09999999999999432, -8.000000000000000000 ) ) ;
#377 = ORIENTED_EDGE ( 'NONE', *, *, #165, .T. ) ;
#378 = AXIS2_PLACEMENT_3D ( 'NONE', #124, #411, #228 ) ;
#379 = SURFACE_STYLE_FILL_AREA ( #341 ) ;
#380 = ADVANCED_FACE ( 'NONE', ( #26 ), #164, .T. ) ;
#381 = FILL_AREA_STYLE_COLOUR ( '', #453 ) ;
#382 = FACE_OUTER_BOUND ( 'NONE', #233, .T. ) ;
#383 = VERTEX_POINT ( 'NONE', #456 ) ;
#384 = AXIS2_PLACEMENT_3D ( 'NONE', #51, #330, #323 ) ;
#385 =( LENGTH_UNIT ( ) NAMED_UNIT ( * ) SI_UNIT ( .MILLI., .METRE. ) );
#386 = ORIENTED_EDGE ( 'NONE', *, *, #245, .F. ) ;
#387 = DIRECTION ( 'NONE',  ( 0.000000000000000000, 0.000000000000000000, -1.000000000000000000 ) ) ;
#388 = ADVANCED_FACE ( 'NONE', ( #335 ), #134, .T. ) ;
#389 = CIRCLE ( 'NONE', #399, 10.25000000000000000 ) ;
#390 = CARTESIAN_POINT ( 'NONE',  ( 0.000000000000000000, 0.1000000000000000472, 0.000000000000000000 ) ) ;
#391 = DIRECTION ( 'NONE',  ( 0.000000000000000000, 1.000000000000000000, 0.000000000000000000 ) ) ;
#392 = PRODUCT_DEFINITION_SHAPE ( 'NONE', 'NONE',  #350 ) ;
#393 = FILL_AREA_STYLE ('',( #311 ) ) ;
#394 = CARTESIAN_POINT ( 'NONE',  ( 0.000000000000000000, 64.59999999999999432, 0.000000000000000000 ) ) ;
#395 = ADVANCED_FACE ( 'NONE', ( #382 ), #198, .F. ) ;
#396 = CARTESIAN_POINT ( 'NONE',  ( 0.000000000000000000, 0.1000000000000000056, -10.25000000000000000 ) ) ;
#397 = FILL_AREA_STYLE ('',( #249 ) ) ;
#398 = FACE_BOUND ( 'NONE', #157, .T. ) ;
#399 = AXIS2_PLACEMENT_3D ( 'NONE', #111, #429, #104 ) ;
#400 =( NAMED_UNIT ( * ) SI_UNIT ( $, .STERADIAN. ) SOLID_ANGLE_UNIT ( ) );
#401 = ORIENTED_EDGE ( 'NONE', *, *, #6, .F. ) ;
#402 = STYLED_ITEM ( 'NONE', ( #92 ), #380 ) ;
#403 = CARTESIAN_POINT ( 'NONE',  ( 0.000000000000000000, 66.09999999999999432, 8.000000000000000000 ) ) ;
#404 = CARTESIAN_POINT ( 'NONE',  ( 0.000000000000000000, 0.6000000000000033085, 0.000000000000000000 ) ) ;
#405 = ORIENTED_EDGE ( 'NONE', *, *, #272, .T. ) ;
#406 = CARTESIAN_POINT ( 'NONE',  ( 1.573671136904348665E-15, 0.1000000000000000472, 12.59999999999999609 ) ) ;
#407 = VERTEX_POINT ( 'NONE', #417 ) ;
#408 = PRESENTATION_STYLE_ASSIGNMENT (( #47 ) ) ;
#409 = ADVANCED_FACE ( 'NONE', ( #60 ), #448, .T. ) ;
#410 = EDGE_LOOP ( 'NONE', ( #23, #15, #222, #368 ) ) ;
#411 = DIRECTION ( 'NONE',  ( -0.000000000000000000, -1.000000000000000000, -0.000000000000000000 ) ) ;
#412 = VERTEX_POINT ( 'NONE', #376 ) ;
#413 = EDGE_CURVE ( 'NONE', #49, #407, #247, .T. ) ;
#414 = PRESENTATION_LAYER_ASSIGNMENT (  '', '', ( #254 ) ) ;
#415 = ORIENTED_EDGE ( 'NONE', *, *, #320, .F. ) ;
#416 = VECTOR ( 'NONE', #244, 1000.000000000000000 ) ;
#417 = CARTESIAN_POINT ( 'NONE',  ( 0.000000000000000000, 65.09999999999999432, 12.59999999999999609 ) ) ;
#418 = ORIENTED_EDGE ( 'NONE', *, *, #91, .F. ) ;
#419 = FACE_OUTER_BOUND ( 'NONE', #18, .T. ) ;
#420 = COLOUR_RGB ( '',0.7921568627450980005, 0.8196078431372548767, 0.9333333333333333481 ) ;
#421 = CIRCLE ( 'NONE', #100, 0.5000000000000004441 ) ;
#422 = AXIS2_PLACEMENT_3D ( 'NONE', #103, #39, #146 ) ;
#423 = EDGE_CURVE ( 'NONE', #383, #324, #50, .T. ) ;
#424 = AXIS2_PLACEMENT_3D ( 'NONE', #312, #275, #42 ) ;
#425 = DIRECTION ( 'NONE',  ( 0.000000000000000000, 1.000000000000000000, 0.000000000000000000 ) ) ;
#426 = UNCERTAINTY_MEASURE_WITH_UNIT (LENGTH_MEASURE( 1.000000000000000082E-05 ), #105, 'distance_accuracy_value', 'NONE');
#427 = FACE_OUTER_BOUND ( 'NONE', #46, .T. ) ;
#428 = PRODUCT ( '26650 Li-ion', '26650 Li-ion', '', ( #121 ) ) ;
#429 = DIRECTION ( 'NONE',  ( 0.000000000000000000, -1.000000000000000000, 0.000000000000000000 ) ) ;
#430 = DIRECTION ( 'NONE',  ( 0.000000000000000000, 0.000000000000000000, -1.000000000000000000 ) ) ;
#431 = ADVANCED_FACE ( 'NONE', ( #427 ), #371, .T. ) ;
#432 = DIRECTION ( 'NONE',  ( 0.000000000000000000, 0.000000000000000000, 1.000000000000000000 ) ) ;
#433 = VECTOR ( 'NONE', #437, 1000.000000000000000 ) ;
#434 = FACE_BOUND ( 'NONE', #88, .T. ) ;
#435 = AXIS2_PLACEMENT_3D ( 'NONE', #374, #369, #43 ) ;
#436 = AXIS2_PLACEMENT_3D ( 'NONE', #37, #40, #357 ) ;
#437 = DIRECTION ( 'NONE',  ( -0.000000000000000000, 1.000000000000000000, -0.000000000000000000 ) ) ;
#438 = EDGE_CURVE ( 'NONE', #340, #162, #204, .T. ) ;
#439 = DIRECTION ( 'NONE',  ( 0.000000000000000000, 0.000000000000000000, 1.000000000000000000 ) ) ;
#440 = MECHANICAL_DESIGN_GEOMETRIC_PRESENTATION_REPRESENTATION (  '', ( #254 ), #210 ) ;
#441 = DIRECTION ( 'NONE',  ( 0.000000000000000000, 0.000000000000000000, 1.000000000000000000 ) ) ;
#442 = CARTESIAN_POINT ( 'NONE',  ( 0.000000000000000000, 0.6000000000000033085, 0.000000000000000000 ) ) ;
#443 = EDGE_CURVE ( 'NONE', #154, #324, #260, .T. ) ;
#444 = DIRECTION ( 'NONE',  ( 0.000000000000000000, 0.000000000000000000, 1.000000000000000000 ) ) ;
#445 = APPLICATION_CONTEXT ( 'automotive_design' ) ;
#446 = ORIENTED_EDGE ( 'NONE', *, *, #438, .F. ) ;
#447 = TOROIDAL_SURFACE ( 'NONE', #94, 12.59999999999999609, 0.5000000000000000000 ) ;
#448 = CYLINDRICAL_SURFACE ( 'NONE', #378, 10.25000000000000000 ) ;
#449 = DIRECTION ( 'NONE',  ( 0.000000000000000000, 0.000000000000000000, -1.000000000000000000 ) ) ;
#450 = ADVANCED_FACE ( 'NONE', ( #315 ), #461, .T. ) ;
#451 = EDGE_LOOP ( 'NONE', ( #452, #156 ) ) ;
#452 = ORIENTED_EDGE ( 'NONE', *, *, #91, .T. ) ;
#453 = COLOUR_RGB ( '',0.6470588235294117974, 0.6196078431372549211, 0.5882352941176470784 ) ;
#454 = ORIENTED_EDGE ( 'NONE', *, *, #342, .T. ) ;
#455 = COLOUR_RGB ( '',0.6470588235294117974, 0.6196078431372549211, 0.5882352941176470784 ) ;
#456 = CARTESIAN_POINT ( 'NONE',  ( 1.604287306883032452E-15, 0.6000000000000033085, 13.09999999999999787 ) ) ;
#457 = ORIENTED_EDGE ( 'NONE', *, *, #158, .T. ) ;
#458 = PRESENTATION_STYLE_ASSIGNMENT (( #309 ) ) ;
#459 = VERTEX_POINT ( 'NONE', #176 ) ;
#460 = MECHANICAL_DESIGN_GEOMETRIC_PRESENTATION_REPRESENTATION (  '', ( #402 ), #355 ) ;
#461 = PLANE ( 'NONE',  #422 ) ;
#462 = DIRECTION ( 'NONE',  ( 0.000000000000000000, 0.000000000000000000, 1.000000000000000000 ) ) ;
#463 = SURFACE_SIDE_STYLE ('',( #109 ) ) ;
#464 = CARTESIAN_POINT ( 'NONE',  ( 0.000000000000000000, 0.1000000000000000056, 0.000000000000000000 ) ) ;
ENDSEC;
END-ISO-10303-21;
